<?xml version="1.0" encoding="UTF-8"?>
<svg width="1043px" height="109px" viewBox="0 0 1043 109" version="1.1" xmlns="http://www.w3.org/2000/svg" xmlns:xlink="http://www.w3.org/1999/xlink" xmlns:sketch="http://www.bohemiancoding.com/sketch/ns">
    <!-- Generator: Sketch 3.5.2 (25235) - http://www.bohemiancoding.com/sketch -->
    <title>Artboard</title>
    <desc>Created with Sketch.</desc>
    <defs></defs>
    <g id="Page-1" stroke="none" stroke-width="1" fill="none" fill-rule="evenodd" sketch:type="MSPage">
        <g id="Artboard" sketch:type="MSArtboardGroup">
            <path d="M0.4765625,44.3359375 L0.4765625,30.0625 L11.1640625,30.0625 L11.1640625,8.6875 L30.9921875,8.6875 L30.9921875,30.0625 L43.4375,30.0625 L43.4375,44.3359375 L30.9921875,44.3359375 L30.9921875,84.8359375 C30.9921875,87.9765782 31.390621,89.9335899 32.1875,90.7070312 C32.984379,91.4804726 35.4218546,91.8671875 39.5,91.8671875 C40.109378,91.8671875 40.7539029,91.8554689 41.4335938,91.8320312 C42.1132846,91.8085936 42.7812467,91.7734377 43.4375,91.7265625 L43.4375,106.703125 L33.9453125,107.054688 C24.4765152,107.382814 18.0078298,105.742206 14.5390625,102.132812 C12.2890512,99.835926 11.1640625,96.2968989 11.1640625,91.515625 L11.1640625,44.3359375 L0.4765625,44.3359375 Z M86.5390625,43.84375 C81.8984143,43.84375 78.300794,45.2968605 75.7460938,48.203125 C73.1913935,51.1093895 71.5859408,55.0468502 70.9296875,60.015625 L102.078125,60.015625 C101.749998,54.7187235 100.144546,50.6992325 97.2617188,47.9570312 C94.3788918,45.21483 90.8047088,43.84375 86.5390625,43.84375 L86.5390625,43.84375 Z M86.5390625,27.3203125 C92.9140944,27.3203125 98.6562245,28.515613 103.765625,30.90625 C108.875026,33.296887 113.093733,37.0702867 116.421875,42.2265625 C119.42189,46.7734602 121.367183,52.046845 122.257812,58.046875 C122.77344,61.5625176 122.984375,66.624967 122.890625,73.234375 L70.4375,73.234375 C70.7187514,80.9219134 73.1327898,86.3124845 77.6796875,89.40625 C80.4453263,91.3281346 83.773418,92.2890625 87.6640625,92.2890625 C91.7890831,92.2890625 95.1406121,91.1171992 97.71875,88.7734375 C99.125007,87.5078062 100.367182,85.7500113 101.445312,83.5 L121.90625,83.5 C121.390622,88.0468977 119.023459,92.6640391 114.804688,97.3515625 C108.242155,104.804725 99.0547466,108.53125 87.2421875,108.53125 C77.4921387,108.53125 68.8906623,105.390656 61.4375,99.109375 C53.9843377,92.8280936 50.2578125,82.6094458 50.2578125,68.453125 C50.2578125,55.1874337 53.6210601,45.0156604 60.3476562,37.9375 C67.0742524,30.8593396 75.8046338,27.3203125 86.5390625,27.3203125 L86.5390625,27.3203125 Z M178.648438,68.734375 C177.382806,69.531254 176.105475,70.1757788 174.816406,70.6679688 C173.527337,71.1601587 171.757824,71.6171854 169.507812,72.0390625 L165.007812,72.8828125 C160.789041,73.6328163 157.765634,74.5468696 155.9375,75.625 C152.843735,77.4531341 151.296875,80.2890433 151.296875,84.1328125 C151.296875,87.5547046 152.246084,90.0273361 154.144531,91.5507812 C156.042978,93.0742264 158.351549,93.8359375 161.070312,93.8359375 C165.382834,93.8359375 169.355451,92.5703252 172.988281,90.0390625 C176.621112,87.5077998 178.507812,82.8906585 178.648438,76.1875 L178.648438,68.734375 Z M166.484375,59.3828125 C170.187519,58.9140602 172.83593,58.3281285 174.429688,57.625 C177.289077,56.4062439 178.71875,54.5078254 178.71875,51.9296875 C178.71875,48.7890468 177.628917,46.6210997 175.449219,45.4257812 C173.26952,44.2304628 170.070334,43.6328125 165.851562,43.6328125 C161.117164,43.6328125 157.765635,44.8046758 155.796875,47.1484375 C154.390618,48.8828212 153.453127,51.2265477 152.984375,54.1796875 L133.648438,54.1796875 C134.070315,47.476529 135.945296,41.9687716 139.273438,37.65625 C144.570339,30.9062162 153.663998,27.53125 166.554688,27.53125 C174.945354,27.53125 182.398405,29.1952959 188.914062,32.5234375 C195.42972,35.8515791 198.6875,42.1327663 198.6875,51.3671875 L198.6875,86.5234375 C198.6875,88.9609497 198.734375,91.9140452 198.828125,95.3828125 C198.968751,98.0078256 199.367184,99.7890578 200.023438,100.726562 C200.679691,101.664067 201.664056,102.437497 202.976562,103.046875 L202.976562,106 L181.179688,106 C180.570309,104.453117 180.148439,103.000007 179.914062,101.640625 C179.679686,100.281243 179.492188,98.7343837 179.351562,97 C176.585924,100.000015 173.398456,102.554677 169.789062,104.664062 C165.476541,107.14845 160.60159,108.390625 155.164062,108.390625 C148.226528,108.390625 142.496116,106.410176 137.972656,102.449219 C133.449196,98.4882614 131.1875,92.8750363 131.1875,85.609375 C131.1875,76.1874529 134.820276,69.3672086 142.085938,65.1484375 C146.070332,62.851551 151.929649,61.2109424 159.664062,60.2265625 L166.484375,59.3828125 Z M262.25,56.8515625 C261.874998,53.9921732 260.91407,51.414074 259.367188,49.1171875 C257.117176,46.023422 253.625024,44.4765625 248.890625,44.4765625 C242.140591,44.4765625 237.52345,47.8280915 235.039062,54.53125 C233.726556,58.0937678 233.070312,62.8280955 233.070312,68.734375 C233.070312,74.3594031 233.726556,78.8827954 235.039062,82.3046875 C237.429699,88.6797194 241.929654,91.8671875 248.539062,91.8671875 C253.226586,91.8671875 256.554678,90.6015752 258.523438,88.0703125 C260.492197,85.5390498 261.687498,82.2578327 262.109375,78.2265625 L282.570312,78.2265625 C282.10156,84.320343 279.898457,90.0859103 275.960938,95.5234375 C269.679656,104.289106 260.375062,108.671875 248.046875,108.671875 C235.718688,108.671875 226.648467,105.015662 220.835938,97.703125 C215.023408,90.3905884 212.117188,80.8984959 212.117188,69.2265625 C212.117188,56.0546216 215.328093,45.8125366 221.75,38.5 C228.171907,31.1874634 237.031194,27.53125 248.328125,27.53125 C257.937548,27.53125 265.800751,29.6874784 271.917969,34 C278.035187,38.3125216 281.656244,45.9296329 282.78125,56.8515625 L262.25,56.8515625 Z M338.820312,27.390625 C343.554711,27.390625 347.855449,28.2109293 351.722656,29.8515625 C355.589863,31.4921957 358.765613,33.9999831 361.25,37.375 C363.359386,40.2343893 364.648435,43.1757661 365.117188,46.1992188 C365.58594,49.2226714 365.820312,54.1562158 365.820312,61 L365.820312,106 L345.359375,106 L345.359375,59.3828125 C345.359375,55.2577919 344.656257,51.9297002 343.25,49.3984375 C341.421866,45.8359197 337.953151,44.0546875 332.84375,44.0546875 C327.546849,44.0546875 323.527357,45.8242011 320.785156,49.3632812 C318.042955,52.9023614 316.671875,57.9530922 316.671875,64.515625 L316.671875,106 L296.703125,106 L296.703125,2.7109375 L316.671875,2.7109375 L316.671875,39.34375 C319.57814,34.8906027 322.941387,31.785165 326.761719,30.0273438 C330.58205,28.2695225 334.601541,27.390625 338.820312,27.390625 L338.820312,27.390625 Z M386.492188,2.359375 L407.796875,2.359375 L407.796875,45.0390625 L447.804688,2.359375 L475.789062,2.359375 L433.320312,45.0390625 L477.96875,106 L450.125,106 L418.132812,60.71875 L407.796875,71.3359375 L407.796875,106 L386.492188,106 L386.492188,2.359375 Z M509.117188,20.21875 L488.796875,20.21875 L488.796875,1.7265625 L509.117188,1.7265625 L509.117188,20.21875 Z M556.789062,27.53125 C561.429711,27.53125 565.554669,28.5507711 569.164062,30.5898438 C572.773456,32.6289164 575.703114,35.453107 577.953125,39.0625 L577.953125,2.5 L598.273438,2.5 L598.273438,106 L578.796875,106 L578.796875,95.3828125 C575.937486,99.9297102 572.679706,103.234365 569.023438,105.296875 C565.367169,107.359385 560.82034,108.390625 555.382812,108.390625 C546.429643,108.390625 538.894562,104.769567 532.777344,97.5273438 C526.660126,90.28512 523.601562,80.9922442 523.601562,69.6484375 C523.601562,56.5702471 526.613251,46.2812875 532.636719,38.78125 C538.660186,31.2812125 546.710887,27.53125 556.789062,27.53125 L556.789062,27.53125 Z M561.148438,91.515625 C566.820341,91.515625 571.132798,89.4062711 574.085938,85.1875 C577.039077,80.9687289 578.515625,75.507846 578.515625,68.8046875 C578.515625,59.4296406 576.148461,52.7265827 571.414062,48.6953125 C568.507798,46.2578003 565.132832,45.0390625 561.289062,45.0390625 C555.429658,45.0390625 551.12892,47.2538841 548.386719,51.6835938 C545.644518,56.1133034 544.273438,61.6093422 544.273438,68.171875 C544.273438,75.2500354 545.667955,80.910135 548.457031,85.1523438 C551.246108,89.3945525 555.476534,91.515625 561.148438,91.515625 L561.148438,91.515625 Z M632.09375,81.53125 C632.515627,85.0937678 633.42968,87.6249925 634.835938,89.125 C637.320325,91.7968884 641.914029,93.1328125 648.617188,93.1328125 C652.554707,93.1328125 655.683582,92.5468809 658.003906,91.375 C660.32423,90.2031191 661.484375,88.4453242 661.484375,86.1015625 C661.484375,83.8515512 660.546884,82.1406309 658.671875,80.96875 C656.796866,79.7968691 649.835998,77.7812643 637.789062,74.921875 C629.117144,72.7656142 623.000018,70.0703287 619.4375,66.8359375 C615.874982,63.6484216 614.09375,59.0547175 614.09375,53.0546875 C614.09375,45.9765271 616.871066,39.8945567 622.425781,34.8085938 C627.980497,29.7226308 635.796825,27.1796875 645.875,27.1796875 C655.437548,27.1796875 663.230439,29.0898246 669.253906,32.9101562 C675.277374,36.7304879 678.734371,43.3280781 679.625,52.703125 L659.585938,52.703125 C659.304686,50.1249871 658.578131,48.085945 657.40625,46.5859375 C655.203114,43.8671739 651.453151,42.5078125 646.15625,42.5078125 C641.796853,42.5078125 638.691416,43.1874932 636.839844,44.546875 C634.988272,45.9062568 634.0625,47.4999909 634.0625,49.328125 C634.0625,51.6250115 635.046865,53.2890573 637.015625,54.3203125 C638.984385,55.3984429 645.945253,57.2499869 657.898438,59.875 C665.867227,61.7500094 671.84373,64.5859185 675.828125,68.3828125 C679.765645,72.2265817 681.734375,77.0312212 681.734375,82.796875 C681.734375,90.390663 678.910184,96.5898197 673.261719,101.394531 C667.613253,106.199243 658.882872,108.601562 647.070312,108.601562 C635.023377,108.601562 626.128935,106.058619 620.386719,100.972656 C614.644503,95.8866933 611.773438,89.4062894 611.773438,81.53125 L632.09375,81.53125 Z M693.6875,55.0234375 C693.6875,36.929597 698.539014,22.984424 708.242188,13.1875 C716.67973,4.65620734 727.413997,0.390625 740.445312,0.390625 C757.8829,0.390625 770.632772,6.10931781 778.695312,17.546875 C783.14846,23.9687821 785.539061,30.4140302 785.867188,36.8828125 L764.210938,36.8828125 C762.80468,31.9140377 761.000011,28.1640752 758.796875,25.6328125 C754.859355,21.13279 749.023476,18.8828125 741.289062,18.8828125 C733.414023,18.8828125 727.203148,22.058562 722.65625,28.4101562 C718.109352,34.7617505 715.835938,43.7499419 715.835938,55.375 C715.835938,67.0000581 718.238257,75.7070023 723.042969,81.4960938 C727.84768,87.2851852 733.953088,90.1796875 741.359375,90.1796875 C748.953163,90.1796875 754.742168,87.6953373 758.726562,82.7265625 C760.929699,80.0546741 762.757805,76.0469017 764.210938,70.703125 L785.65625,70.703125 C783.781241,82.0000565 778.98832,91.1874646 771.277344,98.265625 C763.566368,105.343785 753.68756,108.882812 741.640625,108.882812 C726.7343,108.882812 715.015668,104.10161 706.484375,94.5390625 C697.953082,84.9296395 693.6875,71.7578962 693.6875,55.0234375 L693.6875,55.0234375 Z M834.945312,91.8671875 C840.804717,91.8671875 845.304672,89.7812709 848.445312,85.609375 C851.585953,81.4374791 853.15625,75.5078509 853.15625,67.8203125 C853.15625,60.1327741 851.585953,54.2148645 848.445312,50.0664062 C845.304672,45.917948 840.804717,43.84375 834.945312,43.84375 C829.085908,43.84375 824.574235,45.917948 821.410156,50.0664062 C818.246078,54.2148645 816.664062,60.1327741 816.664062,67.8203125 C816.664062,75.5078509 818.246078,81.4374791 821.410156,85.609375 C824.574235,89.7812709 829.085908,91.8671875 834.945312,91.8671875 L834.945312,91.8671875 Z M874.179688,67.8203125 C874.179688,79.0703688 870.945345,88.6913663 864.476562,96.6835938 C858.00778,104.675821 848.187566,108.671875 835.015625,108.671875 C821.843684,108.671875 812.02347,104.675821 805.554688,96.6835938 C799.085905,88.6913663 795.851562,79.0703688 795.851562,67.8203125 C795.851562,56.7577572 799.085905,47.1719155 805.554688,39.0625 C812.02347,30.9530845 821.843684,26.8984375 835.015625,26.8984375 C848.187566,26.8984375 858.00778,30.9530845 864.476562,39.0625 C870.945345,47.1719155 874.179688,56.7577572 874.179688,67.8203125 L874.179688,67.8203125 Z M916.789062,27.53125 C921.429711,27.53125 925.554669,28.5507711 929.164062,30.5898438 C932.773456,32.6289164 935.703114,35.453107 937.953125,39.0625 L937.953125,2.5 L958.273438,2.5 L958.273438,106 L938.796875,106 L938.796875,95.3828125 C935.937486,99.9297102 932.679706,103.234365 929.023438,105.296875 C925.367169,107.359385 920.82034,108.390625 915.382812,108.390625 C906.429643,108.390625 898.894562,104.769567 892.777344,97.5273438 C886.660126,90.28512 883.601562,80.9922442 883.601562,69.6484375 C883.601562,56.5702471 886.613251,46.2812875 892.636719,38.78125 C898.660186,31.2812125 906.710887,27.53125 916.789062,27.53125 L916.789062,27.53125 Z M921.148438,91.515625 C926.820341,91.515625 931.132798,89.4062711 934.085938,85.1875 C937.039077,80.9687289 938.515625,75.507846 938.515625,68.8046875 C938.515625,59.4296406 936.148461,52.7265827 931.414062,48.6953125 C928.507798,46.2578003 925.132832,45.0390625 921.289062,45.0390625 C915.429658,45.0390625 911.12892,47.2538841 908.386719,51.6835938 C905.644518,56.1133034 904.273438,61.6093422 904.273438,68.171875 C904.273438,75.2500354 905.667955,80.910135 908.457031,85.1523438 C911.246108,89.3945525 915.476534,91.515625 921.148438,91.515625 L921.148438,91.515625 Z M1006.71875,43.84375 C1002.0781,43.84375 998.480482,45.2968605 995.925781,48.203125 C993.371081,51.1093895 991.765628,55.0468502 991.109375,60.015625 L1022.25781,60.015625 C1021.92969,54.7187235 1020.32423,50.6992325 1017.44141,47.9570312 C1014.55858,45.21483 1010.9844,43.84375 1006.71875,43.84375 L1006.71875,43.84375 Z M1006.71875,27.3203125 C1013.09378,27.3203125 1018.83591,28.515613 1023.94531,30.90625 C1029.05471,33.296887 1033.27342,37.0702867 1036.60156,42.2265625 C1039.60158,46.7734602 1041.54687,52.046845 1042.4375,58.046875 C1042.95313,61.5625176 1043.16406,66.624967 1043.07031,73.234375 L990.617188,73.234375 C990.898439,80.9219134 993.312477,86.3124845 997.859375,89.40625 C1000.62501,91.3281346 1003.95311,92.2890625 1007.84375,92.2890625 C1011.96877,92.2890625 1015.3203,91.1171992 1017.89844,88.7734375 C1019.30469,87.5078062 1020.54687,85.7500113 1021.625,83.5 L1042.08594,83.5 C1041.57031,88.0468977 1039.20315,92.6640391 1034.98438,97.3515625 C1028.42184,104.804725 1019.23443,108.53125 1007.42188,108.53125 C997.671826,108.53125 989.07035,105.390656 981.617188,99.109375 C974.164025,92.8280936 970.4375,82.6094458 970.4375,68.453125 C970.4375,55.1874337 973.800748,45.0156604 980.527344,37.9375 C987.25394,30.8593396 995.984321,27.3203125 1006.71875,27.3203125 L1006.71875,27.3203125 Z" id="teachKidsCode" fill="#000000" sketch:type="MSShapeGroup"></path>
            <path d="M511.6,76.5 C511.6,90.5 501.4,102.2 488,104.4 C495.3,97.3 499.8,87.4 499.8,76.5 L488.1,76.5 L488.1,39 L511.6,39 L511.6,76.5 Z" id="Shape" fill="#A291FB" sketch:type="MSShapeGroup"></path>
            <rect id="Rectangle-path" fill="#A291FB" sketch:type="MSShapeGroup" x="488" y="0" width="23.5" height="23.5"></rect>
        </g>
    </g>
</svg>